# xmcd
# 
# Track frame offsets:
#     150
#     15522
#     40942
#     68172
# 
# Disc length: 1289
# 
# Revision: 0
# Processed by: cddbd v1.5.2PL0 Copyright (c) Steve Scherf et al.
# Submitted via: BonkEnc v1.0.8
# 
DISCID=29050704
DTITLE=Sugarbabies - single
DYEAR=1995
DGENRE=Dance
TTITLE0=Magic In You (Total Massive Mix)
TTITLE1=Magic In You (Positive Groove)
TTITLE2=Magic In You (Magic Monkey
TTITLE3=Magic In You
EXTD=
EXTT0=
EXTT1=
EXTT2=
EXTT3=
PLAYORDER=
